<svg width="49" height="50" viewBox="0 0 49 50" fill="none" xmlns="http://www.w3.org/2000/svg">
<mask id="path-1-inside-1_3_498" fill="white">
<rect x="0.5" y="0.733643" width="48" height="48.6667" rx="1"/>
</mask>
<rect x="0.5" y="0.733643" width="48" height="48.6667" rx="1" fill="#BFB3A6"/>
<path d="M31.5 11.7336H18.1667C14.4848 11.7336 11.5 14.7184 11.5 18.4003V31.7336C11.5 35.4155 14.4848 38.4003 18.1667 38.4003H31.5C35.1819 38.4003 38.1667 35.4155 38.1667 31.7336V18.4003C38.1667 14.7184 35.1819 11.7336 31.5 11.7336Z" stroke="black" stroke-width="2" stroke-linecap="round" stroke-linejoin="round"/>
<path d="M30.2778 24.2096C30.4457 25.3423 30.2522 26.4992 29.7248 27.5157C29.1974 28.5322 28.3629 29.3565 27.34 29.8713C26.3171 30.3862 25.1579 30.5654 24.0272 30.3835C22.8966 30.2015 21.8522 29.6677 21.0424 28.858C20.2326 28.0482 19.6988 27.0038 19.5169 25.8731C19.335 24.7425 19.5142 23.5833 20.029 22.5604C20.5439 21.5375 21.3682 20.703 22.3847 20.1756C23.4011 19.6481 24.558 19.4546 25.6908 19.6226C26.8463 19.794 27.916 20.3324 28.742 21.1584C29.568 21.9843 30.1064 23.0541 30.2778 24.2096Z" stroke="black" stroke-width="2" stroke-linecap="round" stroke-linejoin="round"/>
<path d="M32.3195 17.5808H32.3328" stroke="black" stroke-width="2" stroke-linecap="round" stroke-linejoin="round"/>
<rect x="0.5" y="0.733643" width="48" height="48.6667" rx="1" stroke="black" stroke-width="4" mask="url(#path-1-inside-1_3_498)"/>
</svg>
