<svg width="1052" height="70" viewBox="0 0 1052 70" fill="none" xmlns="http://www.w3.org/2000/svg">
<path d="M0 26.88V0H107.424V26.88L82.368 23.424V13.632H66.24V67.2H41.184V13.632H25.056V23.424L0 26.88Z" fill="black"/>
<path d="M110.276 13.632V0H149.636V26.592H199.172V0H224.228V67.2H199.172V40.224H149.636V67.2H124.58V13.632H110.276Z" fill="black"/>
<path d="M233.839 13.632V0H347.983V24.768L322.927 21.312V13.632H273.295V26.784H314.095V40.416H273.295V53.568H322.927V45.888L347.983 42.432V67.2H248.239V13.632H233.839Z" fill="black"/>
<path d="M402.483 6.6001H469.983M402.483 20.1001H469.983M379.983 33.6001H469.983M402.483 47.1001H469.983M402.483 60.6001H469.983" stroke="black" stroke-width="2" stroke-linecap="round"/>
<path d="M477.983 67.2V45.216L551.135 13.632H503.039V21.408L477.983 25.248V0H578.591V21.984L505.439 53.568H553.535V46.848L578.591 43.2V67.2H477.983Z" fill="black"/>
<path d="M654.091 6.6001H586.591M654.091 20.1001H586.591M676.591 33.6001H586.591M654.091 47.1001H586.591M654.091 60.6001H586.591" stroke="black" stroke-width="2" stroke-linecap="round"/>
<path d="M708.591 69.888V2.688H808.335V69.888H708.591ZM733.647 56.256H783.279V16.32H733.647V56.256Z" fill="black"/>
<path d="M827.56 69.888V0L902.248 41.76V16.32H894.088V2.688H927.304V69.888H906.088L852.616 39.168V56.256H860.776V69.888H827.56Z" fill="black"/>
<path d="M936.928 16.32V2.688H1051.07V27.456L1026.02 24V16.32H976.384V29.472H1017.18V43.104H976.384V56.256H1026.02V48.576L1051.07 45.12V69.888H951.328V16.32H936.928Z" fill="black"/>
</svg>
